<?xml version="1.0" encoding="UTF-8"?>
<svg width="130.62mm" height="182.56mm" version="1.1" viewBox="0 0 130.62 182.56" xml:space="preserve" xmlns="http://www.w3.org/2000/svg"><g transform="translate(-27.066 -.2675)"><g transform="translate(27.066 .2675)" stroke-linecap="square" stroke-width="2"><rect x="1" y="1" width="128.62" height="180.56" ry="12.601" fill="#fff" stroke="#000"/><g fill="#800001" aria-label="W"><path d="m121.22 36.57q-8.9788 9.8831-13.565 19.702-4.5217 9.8185-10.723 32.492l-11.175 40.695 1.2919 5.0385 7.9453 7.1055h-29.456l8.462-7.1055-11.433-41.406-11.11 40.502 11.11 13.307h-33.008l-1.2919-1.7441h30.748l-9.6894-11.175 12.209-44.183-2.1317-7.6869-13.242 48.382 1.0335 4.0049 7.5577 7.1055h-29.52l8.785-7.1055-18.797-67.632-9.6894-8.1391h31.587l-8.8496 8.1391 14.792 53.227 2.2608-7.8161-12.467-44.442 5.8782-5.2323 1.4857 1.0335-5.3614 4.7801 11.304 40.631 13.823-50.32h6.072l16.795 60.849 2.0671-7.2993-14.857-53.55h1.8087l13.888 50.32 6.072-21.833q5.6844-20.541 5.6844-26.743 0-6.9117-6.4596-10.852 7.5577-2.39 16.214-6.5242 8.6558-4.1341 12.919-7.4285zm3.8757 4.9093q-7.7515 8.5266-12.79 19.25-4.9739 10.723-10.206 29.972l-11.433 41.729 12.402 14.469h-33.138l-1.4857-1.7441h30.683l-10.465-12.079 11.886-43.279q5.2968-19.25 10.142-29.585 4.8447-10.4 12.919-19.831z"/></g></g></g></svg>
